<svg width="20" height="20" viewBox="0 0 20 20" fill="none" xmlns="http://www.w3.org/2000/svg">
<path d="M18.3515 10.0024C18.3515 8.90794 19.036 7.97383 20 7.60331C19.749 6.55243 19.333 5.54797 18.7675 4.62733C18.4382 4.77357 18.0819 4.84906 17.7216 4.84889C17.0642 4.84889 16.4071 4.59832 15.9054 4.09671C15.1312 3.3226 14.9549 2.17765 15.3752 1.23369C14.4548 0.667806 13.4505 0.251407 12.3997 0C12.0297 0.96505 11.0952 1.65052 10 1.65052C8.90495 1.65052 7.97036 0.96505 7.60036 0C6.54958 0.251402 5.54531 0.667821 4.62495 1.23375C5.04516 2.1776 4.86885 3.32249 4.09469 4.09676C3.59307 4.59837 2.93583 4.849 2.27849 4.849C1.91816 4.84914 1.56181 4.77364 1.2325 4.62738C0.666983 5.54799 0.250987 6.55244 0 7.60331C0.96401 7.97373 1.64854 8.90794 1.64854 10.0024C1.64854 11.0965 0.964583 12.0303 0.001146 12.401C0.252677 13.4518 0.669163 14.456 1.2351 15.3764C1.56369 15.2309 1.91909 15.1559 2.27844 15.156C2.93583 15.156 3.59297 15.4066 4.09464 15.9082C4.8676 16.6812 5.04458 17.8239 4.62667 18.767C5.54712 19.3327 6.55142 19.7488 7.60219 20C7.97344 19.0376 8.90667 18.3544 10 18.3544C11.0933 18.3544 12.0266 19.0375 12.3978 20C13.4486 19.7488 14.4529 19.3326 15.3734 18.7669C14.9555 17.8239 15.1324 16.6812 15.9055 15.9082C16.407 15.4066 17.0642 15.1559 17.7215 15.1559C18.0776 15.1559 18.4335 15.2294 18.7649 15.3764C19.3308 14.456 19.7473 13.4518 19.9989 12.401C19.0354 12.0302 18.3515 11.0964 18.3515 10.0024ZM10.0469 14.1614C7.73958 14.1614 5.88021 12.2916 5.88021 9.99477C5.88021 7.69784 7.73958 5.82811 10.0469 5.82811C12.3541 5.82811 14.2135 7.69784 14.2135 9.99477C14.2135 12.2916 12.3541 14.1614 10.0469 14.1614Z" fill="black"/>
</svg>
